#!OML:ASF E:\emotionWalksFemale\Project 1\Capture day 1\Session 1\Female1.ASF
:FULLY-SPECIFIED
:DEGREES
341
root 8.21591 15.369 11.0384 -179.497 2.82915 -179.007
lowerback 6.58387 2.30643 1.20557
upperback -3.89003 3.19975 -1.12808
thorax -7.64986 1.50029 -2.28225
lowerneck -4.66435 -2.27911 -5.26152
upperneck 8.50477 -3.11527 3.87651
head 3.78684 -1.60897 2.08069
rclavicle -5.7076e-014 -1.11319e-014
rhumerus -34.0469 12.743 -93.1814
rradius 32.9137
rwrist 18.038
rhand -3.38048 -53.3385
rfingers 7.12502
rthumb 22.3488 -82.0659
lclavicle -5.7076e-014 -1.11319e-014
lhumerus -43.4964 1.03578 84.0427
lradius 31.3343
lwrist -20.3862
lhand -2.54564 -33.8589
lfingers 7.12502
lthumb 23.15 -5.2299
rfemur 15.4868 2.02887 29.1232
rtibia 23.3417
rfoot -4.26154 -18.1596
rtoes 4.28012
lfemur -24.9561 -19.7066 -19.5096
ltibia 23.9901
lfoot -10.4339 26.9171
ltoes 5.83026
342
root 8.19485 15.3924 10.8895 -179.602 2.6141 -179.428
lowerback 6.61858 2.26354 0.885365
upperback -3.94403 3.10901 -1.23304
thorax -7.74283 1.46995 -2.20627
lowerneck -4.7755 -2.29178 -5.23389
upperneck 8.84532 -3.14696 3.84294
head 3.92903 -1.63113 2.06389
rclavicle 2.72583e-014 5.1684e-015
rhumerus -34.7198 12.8784 -93.3026
rradius 33.0818
rwrist 17.4617
rhand -3.33997 -53.1937
rfingers 7.12502
rthumb 22.3877 -81.9165
lclavicle 2.72583e-014 5.1684e-015
lhumerus -43.5886 0.885232 84.1615
lradius 31.5583
lwrist -20.7883
lhand -2.27674 -33.6409
lfingers 7.12502
lthumb 23.4079 -5.0445
rfemur 14.3005 1.21699 28.1737
rtibia 26.3502
rfoot -2.741 -17.2482
rtoes 3.50529
lfemur -23.9607 -19.0625 -20.518
ltibia 23.5752
lfoot -10.1857 26.017
ltoes 4.81093
343
root 8.17492 15.4239 10.7412 -179.701 2.53985 -179.886
lowerback 6.5553 2.30639 0.530612
upperback -3.92498 3.12627 -1.35856
thorax -7.69656 1.49591 -2.13833
lowerneck -4.91751 -2.36291 -5.32305
upperneck 9.13369 -3.25145 3.90697
head 4.06991 -1.68745 2.09784
rclavicle -8.05078e-015 1.98785e-015
rhumerus -35.2811 12.985 -93.4083
rradius 33.3197
rwrist 16.8446
rhand -3.17195 -53.3923
rfingers 7.12502
rthumb 22.5489 -82.0955
lclavicle -8.05078e-015 1.98785e-015
lhumerus -43.6663 0.450504 84.3598
lradius 31.9419
lwrist -20.8943
lhand -2.14838 -33.3015
lfingers 7.12502
lthumb 23.5311 -4.72087
rfemur 13.1059 0.44639 27.1004
rtibia 29.2706
rfoot -1.07242 -16.3706
rtoes 5.46231
lfemur -22.9924 -18.2887 -21.5486
ltibia 23.243
lfoot -9.76234 25.2486
ltoes 2.58736
344
root 8.15517 15.4499 10.5924 -179.84 2.51301 -180.227
lowerback 6.64176 2.33806 0.277427
upperback -3.94091 3.1416 -1.42585
thorax -7.7732 1.51471 -2.07503
lowerneck -5.09853 -2.45973 -5.49017
upperneck 9.4976 -3.37985 3.91179
head 4.24877 -1.76197 2.12453
rclavicle 2.03754e-014 -2.06736e-014
rhumerus -35.9302 13.2015 -93.4753
rradius 33.6709
rwrist 16.6223
rhand -2.70722 -53.4769
rfingers 7.12502
rthumb 22.9949 -82.1253
lclavicle 2.03754e-014 -2.06736e-014
lhumerus -43.7967 0.0661867 84.6065
lradius 32.3051
lwrist -20.6812
lhand -1.69419 -32.7463
lfingers 7.12502
lthumb 23.9667 -4.22226
rfemur 11.9093 -0.11946 26.211
rtibia 32.1611
rfoot 0.256691 -15.9843
rtoes 9.93013
lfemur -22.0209 -17.6588 -22.4111
ltibia 22.9703
lfoot -9.47843 24.7457
ltoes 0.315106
345
root 8.13609 15.465 10.4482 -180.031 2.50606 -180.287
lowerback 6.95554 2.36164 0.337496
upperback -4.03476 3.1772 -1.47503
thorax -8.04993 1.52381 -2.186
lowerneck -5.20149 -2.54287 -5.41639
upperneck 10.222 -3.5348 3.95492
head 4.06895 -1.82617 1.90573
rclavicle 5.85421e-014 -1.07344e-014
rhumerus -36.5247 13.3818 -93.6158
rradius 33.825
rwrist 16.3057
rhand -2.11526 -53.4523
rfingers 7.12502
rthumb 23.5628 -82.0288
lclavicle 5.85421e-014 -1.07344e-014
lhumerus -43.9805 -0.454818 84.8504
lradius 32.697
lwrist -20.1345
lhand -1.00267 -32.0341
lfingers 7.12502
lthumb 24.6296 -3.59884
rfemur 10.7016 -0.504557 25.7274
rtibia 35.0554
rfoot 1.70615 -15.7062
rtoes 12.8756
lfemur -21.0295 -17.2682 -22.8932
ltibia 22.665
lfoot -9.62006 24.4056
ltoes -0.0587512
346
root 8.11615 15.4802 10.3081 -180.141 2.60803 -180.342
lowerback 7.03907 2.41708 0.383998
upperback -4.02912 3.25301 -1.51478
thorax -8.08504 1.55634 -2.2685
lowerneck -5.38726 -2.59963 -5.4027
upperneck 10.5037 -3.62778 4.024
head 4.19092 -1.87054 1.91609
rclavicle -3.15571e-014 -9.93923e-015
rhumerus -36.8205 13.555 -93.7326
rradius 33.7582
rwrist 15.8795
rhand -2.08057 -53.0117
rfingers 7.12502
rthumb 23.5961 -81.584
lclavicle -3.15571e-014 -9.93923e-015
lhumerus -43.9452 -0.990321 85.1241
lradius 33.0975
lwrist -19.5864
lhand -0.706803 -31.5088
lfingers 7.12502
lthumb 24.9132 -3.11252
rfemur 9.31508 -1.04114 25.126
rtibia 37.9619
rfoot 3.87479 -14.7655
rtoes 12.0355
lfemur -20.1296 -16.9676 -23.2854
ltibia 22.3083
lfoot -9.88645 24.1989
ltoes -0.534381
347
root 8.09526 15.5024 10.1684 -180.097 2.71022 -180.618
lowerback 6.89072 2.43601 0.161965
upperback -4.01666 3.25516 -1.57769
thorax -7.99372 1.57077 -2.20242
lowerneck -5.52066 -2.62407 -5.49516
upperneck 10.6318 -3.67187 4.19797
head 4.25898 -1.8871 1.97995
rclavicle 1.37658e-014 2.38542e-015
rhumerus -37.2092 13.7382 -93.8534
rradius 33.8665
rwrist 15.897
rhand -1.9746 -52.7086
rfingers 7.12502
rthumb 23.6978 -81.2677
lclavicle 1.37658e-014 2.38542e-015
lhumerus -43.8808 -1.30161 85.3237
lradius 33.4527
lwrist -19.138
lhand -0.840749 -31.8213
lfingers 7.12502
lthumb 24.7848 -3.40728
rfemur 7.71987 -1.53572 24.2696
rtibia 40.8885
rfoot 5.85302 -13.8599
rtoes 11.5003
lfemur -19.3322 -16.5984 -23.9022
ltibia 21.8847
lfoot -9.88335 23.9997
ltoes -2.38141
348
root 8.07564 15.5282 10.0295 -180.06 2.82127 -180.88
lowerback 6.89097 2.43611 -0.0443267
upperback -4.09704 3.23505 -1.66545
thorax -8.08773 1.57127 -2.18087
lowerneck -5.50194 -2.60276 -5.41019
upperneck 10.6746 -3.65729 4.1964
head 4.26646 -1.87869 1.9665
rclavicle -1.94312e-014 -2.70347e-014
rhumerus -37.6518 13.917 -94.0414
rradius 34.0446
rwrist 16.0132
rhand -1.12015 -52.8911
rfingers 7.12502
rthumb 24.517 -81.3417
lclavicle -1.94312e-014 -2.70347e-014
lhumerus -44.1435 -1.84121 85.5417
lradius 34.0855
lwrist -18.1694
lhand -1.17627 -32.2942
lfingers 7.12502
lthumb 24.4632 -3.8364
rfemur 6.11352 -1.93874 23.5278
rtibia 43.822
rfoot 7.74507 -13.3764
rtoes 11.868
lfemur -18.4279 -16.2975 -24.4934
ltibia 21.3033
lfoot -9.93659 23.8526
ltoes -3.23075
349
root 8.05831 15.5506 9.89446 -180.092 2.9625 -181.039
lowerback 7.0483 2.4485 -0.124761
upperback -4.1939 3.24168 -1.74568
thorax -8.28403 1.57599 -2.235
lowerneck -5.31391 -2.58278 -5.11632
upperneck 10.5691 -3.63746 3.94746
head 4.1923 -1.87271 1.84596
rclavicle -1.32192e-014 4.37326e-014
rhumerus -37.9476 14.3264 -94.2959
rradius 34.0235
rwrist 15.8848
rhand -0.563761 -52.6085
rfingers 7.12502
rthumb 25.0503 -80.9858
lclavicle -1.32192e-014 4.37326e-014
lhumerus -44.4606 -2.46624 85.7931
lradius 34.8926
lwrist -16.8993
lhand -1.23539 -32.126
lfingers 7.12502
lthumb 24.4066 -3.66046
rfemur 4.5252 -2.48801 22.9109
rtibia 46.7199
rfoot 10.0998 -12.5928
rtoes 10.3247
lfemur -17.3776 -16.0712 -24.9433
ltibia 20.5081
lfoot -10.1865 23.7525
ltoes -2.99817
350
root 8.0395 15.5681 9.76183 -180.138 3.03811 -181.362
lowerback 7.21452 2.43686 -0.291062
upperback -4.24531 3.20243 -1.88431
thorax -8.43973 1.56222 -2.29532
lowerneck -5.22813 -2.59143 -5.02248
upperneck 10.5423 -3.6554 3.87751
head 4.16771 -1.88319 1.80936
rclavicle -3.21037e-014 4.77083e-015
rhumerus -38.2253 14.7267 -94.5434
rradius 33.961
rwrist 15.8686
rhand -0.154414 -52.2844
rfingers 7.12502
rthumb 25.4425 -80.6063
lclavicle -3.21037e-014 4.77083e-015
lhumerus -44.4439 -2.83246 85.928
lradius 35.3532
lwrist -15.8394
lhand -1.29165 -32.3274
lfingers 7.12502
lthumb 24.3526 -3.85467
rfemur 2.94267 -2.99829 22.1206
rtibia 49.549
rfoot 12.2278 -11.7786
rtoes 9.37655
lfemur -16.2439 -15.8856 -25.5837
ltibia 19.5343
lfoot -10.2936 23.6586
ltoes -3.29715
351
root 8.0192 15.591 9.63054 -180.21 3.18809 -181.857
lowerback 7.36933 2.40845 -0.68694
upperback -4.18198 3.11389 -1.97261
thorax -8.48138 1.53869 -2.16114
lowerneck -5.53427 -2.55741 -5.36968
upperneck 10.626 -3.58808 4.14581
head 4.2521 -1.84399 1.94811
rclavicle -1.16786e-014 -4.37326e-015
rhumerus -38.381 15.0763 -94.6044
rradius 34.0985
rwrist 16.0297
rhand 0.665052 -52.7288
rfingers 7.12502
rthumb 26.2272 -80.9364
lclavicle -1.16786e-014 -4.37326e-015
lhumerus -44.2566 -3.02261 86.1424
lradius 35.8018
lwrist -14.7327
lhand -1.67539 -32.7483
lfingers 7.12502
lthumb 23.9847 -4.22666
rfemur 1.36583 -3.25505 21.1948
rtibia 52.275
rfoot 13.982 -11.4693
rtoes 10.6633
lfemur -15.0209 -15.7349 -26.4151
ltibia 18.4242
lfoot -10.1729 23.7195
ltoes -3.7735
